<svg width="24" height="26" viewBox="0 0 24 26" fill="none" xmlns="http://www.w3.org/2000/svg">
<path d="M8.0126 25.3336C7.75927 25.3336 7.50594 25.2403 7.30594 25.0403L0.625937 18.3603C0.239271 17.9736 0.239271 17.3336 0.625937 16.9469C1.0126 16.5603 1.6526 16.5603 2.03927 16.9469L8.71927 23.6269C9.10594 24.0136 9.10594 24.6536 8.71927 25.0403C8.51927 25.2269 8.26594 25.3336 8.0126 25.3336Z" fill="white"/>
<path d="M8.0126 25.3336C7.46594 25.3336 7.01303 24.88 7.01303 24.3333V1.66666C7.01303 1.11999 7.46636 0.666656 8.01303 0.666656C8.5597 0.666656 9.01303 1.11999 9.01303 1.66666V24.3333C9.01303 24.88 8.55927 25.3336 8.0126 25.3336Z" fill="white"/>
<path d="M22.6793 9.34658C22.426 9.34658 22.1727 9.25324 21.9727 9.05324L15.2927 2.37324C14.906 1.98658 14.906 1.34658 15.2927 0.95991C15.6793 0.573243 16.3193 0.573243 16.706 0.95991L23.386 7.63991C23.7727 8.02658 23.7727 8.66658 23.386 9.05324C23.186 9.25324 22.9327 9.34658 22.6793 9.34658Z" fill="white"/>
<path d="M15.9869 25.3333C15.4403 25.3333 14.9869 24.88 14.9869 24.3333V1.66666C14.9869 1.11999 15.4403 0.666656 15.9869 0.666656C16.5336 0.666656 16.9869 1.11999 16.9869 1.66666V24.3333C16.9869 24.88 16.5469 25.3333 15.9869 25.3333Z" fill="white"/>
</svg>
