<svg width="12" height="11" viewBox="0 0 12 11" fill="none" xmlns="http://www.w3.org/2000/svg">
<path d="M10.3297 1.76103C10.0713 1.50249 9.76448 1.2974 9.42677 1.15747C9.08907 1.01755 8.72711 0.945526 8.36156 0.945526C7.99602 0.945526 7.63406 1.01755 7.29635 1.15747C6.95865 1.2974 6.65183 1.50249 6.39341 1.76103L5.8571 2.29734L5.32079 1.76103C4.7988 1.23905 4.09084 0.945797 3.35264 0.945797C2.61443 0.945797 1.90647 1.23905 1.38448 1.76103C0.862494 2.28302 0.569244 2.99099 0.569244 3.72919C0.569244 4.46739 0.862494 5.17536 1.38448 5.69734L1.92079 6.23365L5.8571 10.17L9.79341 6.23365L10.3297 5.69734C10.5883 5.43892 10.7933 5.1321 10.9333 4.7944C11.0732 4.45669 11.1452 4.09473 11.1452 3.72919C11.1452 3.36364 11.0732 3.00168 10.9333 2.66398C10.7933 2.32628 10.5883 2.01945 10.3297 1.76103V1.76103Z" stroke="#161616" stroke-width="0.728571" stroke-linecap="round" stroke-linejoin="round"/>
</svg>
