<svg width="32" height="32" viewBox="0 0 32 32" fill="none" xmlns="http://www.w3.org/2000/svg">
<path d="M29.3333 29.3333H2.66666C2.11999 29.3333 1.66666 28.88 1.66666 28.3333C1.66666 27.7867 2.11999 27.3333 2.66666 27.3333H29.3333C29.88 27.3333 30.3333 27.7867 30.3333 28.3333C30.3333 28.88 29.88 29.3333 29.3333 29.3333Z" fill="white"/>
<path d="M13 5.33332V29.3333H19V5.33332C19 3.86666 18.4 2.66666 16.6 2.66666H15.4C13.6 2.66666 13 3.86666 13 5.33332Z" fill="white"/>
<path d="M4 13.3333V29.3333H9.33333V13.3333C9.33333 11.8667 8.8 10.6667 7.2 10.6667H6.13333C4.53333 10.6667 4 11.8667 4 13.3333Z" fill="white"/>
<path d="M22.6667 20V29.3333H28V20C28 18.5333 27.4667 17.3333 25.8667 17.3333H24.8C23.2 17.3333 22.6667 18.5333 22.6667 20Z" fill="white"/>
</svg>
