<svg width="45" height="45" viewBox="0 0 45 45" fill="none" xmlns="http://www.w3.org/2000/svg">
<rect width="45" height="45" rx="22.5" fill="#F7931A"/>
<g clip-path="url(#clip0_1_91)">
<path d="M38.8682 26.5821C36.6144 35.6224 27.4581 41.1241 18.4168 38.8698C9.37923 36.616 3.87751 27.4591 6.13227 18.4196C8.38506 9.37832 17.5414 3.87618 26.5799 6.12996C35.6206 8.38374 41.122 17.5416 38.868 26.5823L38.8681 26.5821H38.8682Z" fill="#F7931A"/>
<path d="M29.9411 20.0957C30.277 17.85 28.5673 16.6429 26.2294 15.8376L26.9878 12.7956L25.1361 12.3342L24.3978 15.2961C23.9109 15.1747 23.411 15.0603 22.9141 14.9469L23.6578 11.9654L21.8072 11.504L21.0483 14.545C20.6455 14.4533 20.2498 14.3626 19.8659 14.2671L19.8681 14.2575L17.3145 13.6199L16.8219 15.5977C16.8219 15.5977 18.1957 15.9126 18.1668 15.932C18.9166 16.1191 19.0522 16.6155 19.0297 17.009L18.1658 20.4745C18.2174 20.4876 18.2844 20.5066 18.3583 20.5363C18.2965 20.5209 18.2308 20.5042 18.1626 20.4879L16.9516 25.3426C16.86 25.5704 16.6274 25.9123 16.1031 25.7825C16.1217 25.8094 14.7573 25.4466 14.7573 25.4466L13.8379 27.5663L16.2476 28.167C16.6959 28.2794 17.1353 28.397 17.5679 28.5076L16.8016 31.5845L18.6512 32.0459L19.4101 29.0017C19.9154 29.1389 20.4057 29.2654 20.8858 29.3847L20.1295 32.4145L21.9813 32.876L22.7475 29.8049C25.9051 30.4024 28.2794 30.1615 29.2788 27.3054C30.0841 25.006 29.2387 23.6796 27.5775 22.8147C28.7874 22.5357 29.6988 21.7399 29.9418 20.096L29.9412 20.0956L29.9411 20.0957ZM25.7103 26.0284C25.138 28.3279 21.2664 27.0849 20.0112 26.7732L21.0281 22.6968C22.2832 23.0102 26.3084 23.6303 25.7104 26.0284H25.7103ZM26.283 20.0624C25.761 22.154 22.5386 21.0914 21.4933 20.8308L22.4152 17.1338C23.4605 17.3944 26.8268 17.8807 26.2832 20.0624H26.283Z" fill="white"/>
</g>
<defs>
<clipPath id="clip0_1_91">
<rect width="33.75" height="33.75" fill="white" transform="translate(5.625 5.625)"/>
</clipPath>
</defs>
</svg>
