<svg width="578" height="579" viewBox="0 0 578 579" fill="none" xmlns="http://www.w3.org/2000/svg">
<g opacity="0.15" clip-path="url(#clip0_1_27)">
<g opacity="0.9">
<path opacity="0.9" d="M347.5 10.6884C348.85 10.8233 350.199 10.9852 351.495 11.1742C350.172 11.0122 348.85 10.8233 347.5 10.6884Z" fill="#736F6E"/>
<path opacity="0.9" d="M431.117 37.6514L423.802 33.7109L423.182 33.36L420.861 32.2264L422.399 32.9551L418.917 31.1468L413.789 28.7986L415.139 29.4734C408.877 26.5584 402.48 24.0753 395.895 21.6192C367.825 15.0066 338.864 12.2536 288.986 11.4169C381.374 15.9782 413.141 29.1495 423.748 33.6838C426.259 34.9794 428.688 36.2749 431.117 37.6514Z" fill="#736F6E"/>
<path opacity="0.9" d="M357.703 8.31305L347.366 5.88392L345.423 5.50605C334.762 3.83266 313.628 7.15247 289.148 11.336C291.28 11.0391 293.386 10.7962 295.464 10.5532C335.922 6.04587 347.636 6.80159 357.703 8.31305Z" fill="#736F6E"/>
<path opacity="0.9" d="M327.636 2.64512L317.38 1.43054C316.786 1.43054 316.705 1.5925 289.148 11.444C321.159 2.94202 324.236 2.86104 328.581 2.75308L327.636 2.64512Z" fill="#736F6E"/>
<path opacity="0.9" d="M191.01 561.29L193.17 562.046C198.298 563.773 204.64 565.744 209.553 567.282C214.465 568.82 221.455 570.332 226.557 571.546C159.891 555.352 103.022 518.726 57.5165 462.965L70.3099 478.754C71.9023 480.562 73.3328 482.155 74.6553 483.612C79.3786 488.524 84.9926 494.246 90.8495 499.806C94.3852 503.045 98.7846 506.932 104.857 512.303C107.988 514.813 111.659 517.701 115.411 520.4C138.428 537.727 163.911 551.51 191.01 561.29Z" fill="#736F6E"/>
<path opacity="0.9" d="M303.507 0.809847L302.103 0.297024L297.083 0.108093H291.469C294.843 0.108093 294.951 0.351011 296.462 2.34829C295.491 5.83004 295.491 5.83003 289.094 11.552C302.616 3.88673 303.021 2.45625 303.507 0.809847Z" fill="#736F6E"/>
<path opacity="0.9" d="M19.4336 395.003C72.4425 520.13 205.154 568.011 252.009 575.838H252.684C255.167 576.135 258.271 576.459 260.646 576.702L265.585 577.134H265.936C238.271 574.57 48.0703 518.457 5.26367 345.773C5.7495 348.337 6.20838 350.847 6.66722 353.168C9.85207 365.206 14.7643 380.941 18.8399 392.952L19.4336 395.003Z" fill="#736F6E"/>
<path opacity="0.9" d="M280.942 2.24018C287.501 4.72329 287.825 6.15378 289.039 11.4439C293.843 0.647762 283.884 0.485807 275.085 0.296875C272.008 0.458817 267.906 0.72872 264.829 0.971632L261.914 1.21456C266.394 0.917662 275.76 0.215907 280.942 2.24018Z" fill="#736F6E"/>
<path opacity="0.9" d="M282.508 578.186H285.828H293.763C271.82 577.808 -42.2662 458.781 8.50253 216.948C6.77515 223.75 5.07477 232.926 3.61729 239.809C2.21379 248.581 1.05322 260.429 0.0815679 269.282C-5.12756 486.311 253.763 575.379 282.508 578.186Z" fill="#736F6E"/>
<path opacity="0.9" d="M235.14 5.0474L233.332 5.42527C268.689 -0.64755 283.426 8.1243 289.013 11.4441C279.026 0.432071 261.618 0.620995 235.14 5.0474Z" fill="#736F6E"/>
<path opacity="0.9" d="M36.708 147.07C-90.8751 393.033 266.503 566.715 309.31 577.511H310.201L312.063 577.376H312.954L319.971 576.702H320.808C270.174 538.214 208.582 517.323 159.784 475.866C135.897 455.623 79.9733 408.174 47.2611 344.747C-18.1364 217.893 40.0818 136.922 68.6375 102.077L65.6955 105.532L60.8103 111.011C53.253 121.402 43.7523 135.653 36.9508 146.638L36.708 147.07Z" fill="#736F6E"/>
<path opacity="0.9" d="M222.104 7.80041H222.617L221.241 8.1243C218.083 8.82605 213.872 9.95964 210.741 10.8233C204.264 12.6317 195.708 15.2767 189.419 17.6519C185.587 19.1093 180.431 21.0256 176.653 22.6451C172.118 24.5884 166.154 27.3684 161.7 29.4466C157.247 31.5249 151.147 34.8447 146.801 37.3008C141.673 40.2967 135.358 44.1833 129.717 47.8C71.9575 87.5297 26.3439 151.308 32.5517 223.237C47.4503 392.844 239.513 509.172 311.82 552.95C336.84 568.119 336.84 568.119 338.298 574.057H338.783C342.751 573.328 347.744 572.275 351.685 571.358H352.09C353.52 570.872 354.546 568.848 355.49 567.714C352.225 561.398 345.774 556.918 310.983 534.057C221.538 475.461 131.525 408.066 78.8669 312.548C-39.7014 96.9763 190.283 -14.5475 288.797 11.714C269.904 4.07576 246.693 3.23905 222.104 7.80041Z" fill="#736F6E"/>
<path opacity="0.9" d="M322.103 509.685C376.515 548.146 389.578 557.296 372.278 565.798L372.844 565.636L381.454 562.937L387.446 560.804C411.737 549.495 390.577 533.814 339.835 496.487C283.695 455.164 213.818 403.721 154.52 328.472C-20.4851 106.342 166.315 -3.50863 289.013 11.5519C149.581 -18.6772 -150.443 175.788 322.103 509.685Z" fill="#736F6E"/>
<path opacity="0.9" d="M354.113 466.446C417.567 515.029 441.373 533.355 409.875 551.493L410.604 551.169C416.002 548.632 422.453 545.177 427.5 542.586C452.088 528.227 442.264 511.547 427.986 495.677C368.283 429.281 288.986 385.286 227.826 320.564C30.9855 112.145 163.049 8.55603 289.013 11.444C160.674 -0.269794 -68.7437 142.266 354.113 466.446Z" fill="#736F6E"/>
<path opacity="0.9" d="M403.155 426.177C463.64 474.759 485.178 500.697 452.925 526.878C458.323 522.991 465.448 517.512 470.927 513.382C473.626 511.088 476.595 508.632 479.375 506.203C504.476 483.207 490.387 470.792 321.563 322.102C76.842 106.558 187.124 30.4451 266.881 14.5478C194.52 27.935 -7.15172 97.381 403.155 426.177Z" fill="#736F6E"/>
<path opacity="0.9" d="M285.801 11.7141C279.458 12.2617 273.15 13.1627 266.907 14.4131C275.355 12.8746 282.13 12.0649 285.801 11.7141Z" fill="#736F6E"/>
<path opacity="0.9" d="M289.013 11.4438C288.824 11.4438 287.69 11.4438 285.801 11.7137L289.013 11.4438Z" fill="#736F6E"/>
<path opacity="0.9" d="M391.873 331.279C492.196 412.007 529.874 448.956 497.135 489.064L497.783 488.389C502.911 482.991 509.092 475.569 513.977 470.009L514.274 469.631C542.829 432.169 515.542 392.79 397.757 301.266C90.4992 62.5364 253.278 17.8675 289.013 11.4438C262.967 14.7367 44.6156 51.7134 391.873 331.279Z" fill="#736F6E"/>
<path opacity="0.9" d="M412.628 266.691C526.149 351.495 557.404 394.841 536.163 438.215C537.026 436.784 537.863 435.516 538.673 433.977L539.482 432.601C540.049 431.602 540.589 430.657 541.102 429.713L547.606 417.243C548.389 415.624 549.172 414.031 549.9 412.493C575.271 354.383 479.24 284.478 415.489 238.082C207.826 86.936 231.955 31.4439 289.012 11.3632C240.43 24.1296 155.275 74.3855 412.628 266.691Z" fill="#736F6E"/>
<path opacity="0.9" d="M418.188 200.862C517.297 270.686 576.675 317.379 564.314 375.651C564.908 373.681 565.501 371.71 566.068 369.767C568.065 362.507 570.036 354.328 571.628 347.824C580.13 289.741 520.346 245.477 421.697 178.082C356.623 133.575 235.464 50.7147 289.013 11.4438C205.1 50.7417 365.476 163.723 418.188 200.862Z" fill="#736F6E"/>
<path opacity="0.9" d="M425.449 149.499C537.135 221.968 575.083 254.761 577.08 304.72C577.08 303.749 577.08 302.75 577.269 301.778L577.62 289.579L577.35 277.784C577.35 276.408 577.215 275.085 577.161 273.735C572.87 221.401 503.073 178.217 414.842 123.696C352.764 85.3433 282.427 41.8619 289.013 11.4438C259.971 42.1858 359.539 106.774 425.449 149.499Z" fill="#736F6E"/>
<path opacity="0.9" d="M418.242 103.265C521.102 161.672 559.833 190.012 572.086 232.818C570.548 225.423 568.038 216.03 565.933 208.095C565.447 206.449 564.988 204.829 564.475 203.183C547.768 159.701 491.601 128.474 394.436 77.2732C325.611 41.0792 302.966 26.9093 288.958 11.4438C297.028 34.4396 347.878 63.3192 418.242 103.265Z" fill="#736F6E"/>
<path opacity="0.9" d="M549.846 165.478C549.415 164.614 549.01 163.75 548.578 162.779L542.721 151.227L538.78 144.317L536.567 140.539C523.288 119.945 499.321 104.588 464.989 86.558C408.309 56.8687 347.446 36.8959 289.012 11.2821C307.258 22.8879 340.753 38.2724 383.154 57.7324C495.623 109.581 530.44 131.929 549.846 165.478Z" fill="#736F6E"/>
<path opacity="0.9" d="M514.759 109.23C514.246 108.555 513.733 107.934 513.167 107.26L512.114 105.991C511.682 105.478 511.25 104.938 510.792 104.426C506.554 99.4593 501.75 94.1422 497.917 89.8238C472.762 64.0751 402.48 37.6785 289.012 11.5519C461.129 63.0224 494.435 87.2057 514.759 109.23Z" fill="#736F6E"/>
<path opacity="0.9" d="M467.58 62.2935C463.37 59.0547 458.754 55.6809 454.814 52.739L452.357 51.0926C425.07 33.8458 370.145 20.5126 289.012 11.4438C339.484 18.9202 429.74 35.7351 471.143 65.2085L467.58 62.2935Z" fill="#736F6E"/>
<path opacity="0.9" d="M353.06 11.3901C359.781 12.3077 366.555 13.4953 372.952 15.0068C380.379 15.9665 387.681 17.7219 394.733 20.2429L393.978 19.919C389.551 18.1916 383.586 16.1404 379.079 14.5209C368.499 11.1202 356.056 10.6343 341.643 10.0945L343.641 10.3104C336.272 9.60869 328.796 9.23083 321.212 9.25782C309.525 9.82462 307.987 9.95957 289.12 11.471C310.418 10.3315 331.76 10.3045 353.06 11.3901ZM347.5 10.6883C348.85 10.8233 350.199 10.9852 351.495 11.1741C350.172 11.0122 348.85 10.8233 347.5 10.6883Z" fill="#736F6E"/>
</g>
</g>
<defs>
<clipPath id="clip0_1_27">
<rect width="577.619" height="578.24" fill="white"/>
</clipPath>
</defs>
</svg>
