<svg width="109" height="31" viewBox="0 0 109 31" fill="none" xmlns="http://www.w3.org/2000/svg">
<path d="M5 6.5L14.0835 4.96715C17.501 4.39045 20.9012 6.07988 22.5057 9.15187L24.4264 12.8291C25.7055 15.278 28.4916 16.5369 31.1749 15.8783L42.3531 13.1345C45.2016 12.4354 48.2043 13.351 50.1779 15.5206L59.6174 25.8973C62.0698 28.5932 66.3394 28.4981 68.6694 25.6958L83.1302 8.30337C84.0802 7.16084 85.4891 6.5 86.9749 6.5L105 6.5" stroke="#FF002E" stroke-width="2" stroke-linecap="round"/>
<rect width="25" height="24" fill="url(#paint0_linear_1_124)"/>
<rect width="25" height="24" transform="matrix(-1 0 0 1 109 0)" fill="url(#paint1_linear_1_124)"/>
<defs>
<linearGradient id="paint0_linear_1_124" x1="5.5" y1="24" x2="23" y2="24" gradientUnits="userSpaceOnUse">
<stop stop-color="#0F111E"/>
<stop offset="1" stop-color="#0F111E" stop-opacity="0"/>
</linearGradient>
<linearGradient id="paint1_linear_1_124" x1="5.5" y1="24" x2="23" y2="24" gradientUnits="userSpaceOnUse">
<stop stop-color="#0F111E"/>
<stop offset="1" stop-color="#0F111E" stop-opacity="0"/>
</linearGradient>
</defs>
</svg>
